<svg width="26" height="26" viewBox="0 0 26 26" fill="none" xmlns="http://www.w3.org/2000/svg">
<path d="M13 18.4545C11.5534 18.4545 10.166 17.8799 9.14305 16.8569C8.12013 15.834 7.54545 14.4466 7.54545 13C7.54545 11.5534 8.12013 10.166 9.14305 9.14305C10.166 8.12013 11.5534 7.54545 13 7.54545C14.4466 7.54545 15.834 8.12013 16.8569 9.14305C17.8799 10.166 18.4545 11.5534 18.4545 13C18.4545 14.4466 17.8799 15.834 16.8569 16.8569C15.834 17.8799 14.4466 18.4545 13 18.4545ZM12.0909 3H13.9091V5.72727H12.0909V3ZM12.0909 20.2727H13.9091V23H12.0909V20.2727ZM5.28636 6.57182L6.57182 5.28636L8.5 7.21455L7.21455 8.5L5.28636 6.57182ZM17.5 18.7855L18.7855 17.5L20.7136 19.4282L19.4282 20.7136L17.5 18.7855ZM19.4282 5.28545L20.7136 6.57182L18.7855 8.5L17.5 7.21455L19.4282 5.28636V5.28545ZM7.21455 17.5L8.5 18.7855L6.57182 20.7136L5.28636 19.4282L7.21455 17.5ZM23 12.0909V13.9091H20.2727V12.0909H23ZM5.72727 12.0909V13.9091H3V12.0909H5.72727Z" fill="#353535"/>
</svg>
