<svg width="640" height="640" viewBox="0 0 640 640" fill="none" xmlns="http://www.w3.org/2000/svg">
<path d="M303.8 192.7C304.4 192.9 305.6 192.9 306.3 192.7C306.9 192.4 306.4 192.2 305 192.2C303.6 192.2 303.1 192.4 303.8 192.7ZM333.8 192.7C334.5 193 335.4 192.9 335.7 192.6C336.1 192.3 335.5 192 334.4 192.1C333.3 192.1 333 192.4 333.8 192.7ZM255 282.3C255 282.5 256.5 283.9 258.3 285.6L261.5 288.5L258.6 285.2C255.8 282.2 255 281.5 255 282.3ZM381.4 285.2L378.5 288.5L381.8 285.6C383.5 283.9 385 282.5 385 282.3C385 281.5 384.2 282.2 381.4 285.2ZM445.2 360C445.2 361.4 445.4 361.9 445.7 361.2C445.9 360.6 445.9 359.4 445.7 358.7C445.4 358.1 445.2 358.6 445.2 360ZM120.2 403C120.2 404.4 120.4 404.9 120.7 404.2C120.9 403.6 120.9 402.4 120.7 401.7C120.4 401.1 120.2 401.6 120.2 403ZM519.2 403C519.2 404.4 519.4 404.9 519.7 404.2C519.9 403.6 519.9 402.4 519.7 401.7C519.4 401.1 519.2 401.6 519.2 403Z" fill="black" fill-opacity="0.2"/>
<path d="M370.4 274.2L368.5 276.5L370.8 274.6C372.9 272.8 373.5 272 372.7 272C372.5 272 371.5 273 370.4 274.2ZM268 273.4C268 273.6 268.8 274.4 269.8 275.1C271.3 276.4 271.4 276.3 270.1 274.7C268.8 273.1 268 272.6 268 273.4Z" fill="black" fill-opacity="0.3"/>
<path d="M189.9 331.7C188.6 333.3 188.7 333.4 190.3 332.1C191.2 331.4 192 330.6 192 330.4C192 329.6 191.2 330.1 189.9 331.7ZM448 330.4C448 330.6 448.8 331.4 449.8 332.1C451.3 333.4 451.4 333.3 450.1 331.7C448.8 330.1 448 329.6 448 330.4ZM302.4 383.2L300.5 385.5L302.8 383.6C304.9 381.8 305.5 381 304.7 381C304.5 381 303.5 382 302.4 383.2ZM336 382.4C336 382.6 336.8 383.4 337.8 384.1C339.3 385.4 339.4 385.3 338.1 383.7C336.8 382.1 336 381.6 336 382.4ZM302 416.4C302 416.6 302.8 417.4 303.8 418.1C305.3 419.4 305.4 419.3 304.1 417.7C302.8 416.1 302 415.6 302 416.4Z" fill="black" fill-opacity="0.6"/>
<path d="M356 93.4002C356 93.6002 356.8 94.4002 357.8 95.1002C359.3 96.4002 359.4 96.3002 358.1 94.7002C356.8 93.1002 356 92.6002 356 93.4002ZM472 294.4C472 294.6 472.8 295.4 473.8 296.1C475.3 297.4 475.4 297.3 474.1 295.7C472.8 294.1 472 293.6 472 294.4ZM131 430.4C131 430.6 131.8 431.4 132.8 432.1C134.3 433.4 134.4 433.3 133.1 431.7C131.8 430.1 131 429.6 131 430.4Z" fill="black" fill-opacity="0.1"/>
<path d="M178.1 358.6C178.1 359.7 178.4 360 178.7 359.2C179 358.5 178.9 357.6 178.6 357.3C178.3 356.9 178 357.5 178.1 358.6ZM461.2 359C461.2 360.4 461.4 360.9 461.7 360.2C461.9 359.6 461.9 358.4 461.7 357.7C461.4 357.1 461.2 357.6 461.2 359Z" fill="black" fill-opacity="0.7"/>
<path d="M315.8 208.7C316.4 208.9 317.6 208.9 318.3 208.7C318.9 208.4 318.4 208.2 317 208.2C315.6 208.2 315.1 208.4 315.8 208.7ZM321.8 208.7C322.4 208.9 323.6 208.9 324.3 208.7C324.9 208.4 324.4 208.2 323 208.2C321.6 208.2 321.1 208.4 321.8 208.7ZM269 273.2C273.1 277.7 274 278.5 274 277.7C274 277.5 271.9 275.4 269.3 273L264.5 268.5L269 273.2ZM370.5 273.2L366.5 277.5L370.8 273.5C374.7 269.9 375.5 269 374.7 269C374.5 269 372.6 270.9 370.5 273.2ZM257 285.2C261.1 289.7 262 290.5 262 289.7C262 289.5 259.9 287.4 257.3 285L252.5 280.5L257 285.2ZM382 285.5C379.6 288 377.8 290 378.1 290C378.4 290 380.6 288 383 285.5C385.4 283 387.2 281 386.9 281C386.6 281 384.4 283 382 285.5ZM167.9 294.7C166.6 296.3 166.7 296.4 168.3 295.1C169.2 294.4 170 293.6 170 293.4C170 292.6 169.2 293.1 167.9 294.7ZM470 293.4C470 293.6 470.8 294.4 471.8 295.1C473.3 296.4 473.4 296.3 472.1 294.7C470.8 293.1 470 292.6 470 293.4ZM316.8 295.7C317.5 296 318.4 295.9 318.7 295.6C319.1 295.3 318.5 295 317.4 295.1C316.3 295.1 316 295.4 316.8 295.7ZM321.8 295.7C322.5 296 323.4 295.9 323.7 295.6C324.1 295.3 323.5 295 322.4 295.1C321.3 295.1 321 295.4 321.8 295.7ZM120.2 504C120.2 505.4 120.4 505.9 120.7 505.2C120.9 504.6 120.9 503.4 120.7 502.7C120.4 502.1 120.2 502.6 120.2 504ZM519.2 504C519.2 505.4 519.4 505.9 519.7 505.2C519.9 504.6 519.9 503.4 519.7 502.7C519.4 502.1 519.2 502.6 519.2 504ZM511.9 520.7L509.5 523.5L512.3 521.1C513.8 519.7 515 518.5 515 518.3C515 517.5 514.2 518.2 511.9 520.7ZM142.5 552C143.5 553.1 144.5 554 144.8 554C145.1 554 144.5 553.1 143.5 552C142.5 550.9 141.5 550 141.2 550C140.9 550 141.5 550.9 142.5 552ZM496.4 552.2L494.5 554.5L496.8 552.6C498.9 550.8 499.5 550 498.7 550C498.5 550 497.5 551 496.4 552.2Z" fill="black" fill-opacity="0.9"/>
<path d="M307.1 81.6001C300.1 83.5001 291 88.4001 285.4 93.3001C281.2 97.0001 207.2 197.5 201.8 207C199.1 211.6 196 220.9 196 224.2C196 225.8 196.6 225.7 201.3 223C228.8 206.9 258.5 196.8 290.1 193C304.1 191.3 348.7 192.2 361 194.5C389.7 199.7 414.7 208.9 438.8 223C443.4 225.7 444 225.8 444 224.2C444 220.9 440.9 211.6 438.2 207C432.8 197.5 358.8 97.0001 354.6 93.3001C341.7 82.0001 322.9 77.3001 307.1 81.6001Z" fill="url(#paint0_linear_210_2)"/>
<path d="M306.5 209.2C287.5 210.1 265 214.3 249 219.8C243.7 221.7 243.5 221.9 243.8 225C244.1 229.1 248.5 241.9 251.8 248.5C258.8 262.6 273 278.4 284.8 285.3C307.2 298.5 332.8 298.5 355.2 285.3C368.1 277.8 382.3 261.4 389.5 245.6C393.5 237 397.5 223.1 396.3 222C393.3 219.2 365.8 212.6 349.2 210.6C333.3 208.7 323 208.3 306.5 209.2Z" fill="url(#paint1_linear_210_2)"/>
<path d="M218.5 232.6C214.7 234.6 208.3 238.5 204.3 241.2L197.1 246.2L199.1 251.2C201.6 257.6 203.7 260.7 227.2 293L246.6 319.5H393.4L412.8 293C436.3 260.7 438.4 257.6 440.9 251.2L442.9 246.2L435.7 241.2C428.2 236.1 414.2 228.4 413.6 229.1C413.5 229.3 412.1 233.3 410.7 238C399.4 274.6 372.2 302.2 339.9 310C328.4 312.7 311.6 312.7 300 310C281.7 305.6 262.8 293.2 249.8 277C241.8 267.2 232.5 249.3 229 237.2C227.7 232.7 226.4 229 226.1 229C225.8 229 222.4 230.7 218.5 232.6ZM186.9 283.4C176.4 287.1 167.4 294.3 161.8 303.5C156.6 312 122.9 390.9 121.8 397C119.8 408.7 124.9 423.2 133.9 431.2C136.6 433.6 149.8 441.9 163.2 449.8C182.2 460.8 188.5 464 191.2 464H194.8L193.4 459.2C192.7 456.6 188.9 433.6 185 408C176.9 355.1 176.8 353.6 182.6 342.1C189.4 328.5 200.9 321 216.3 320L225.2 319.5L211.3 300.3C201.4 286.5 196.9 281.1 195.5 281.1C194.4 281.1 190.5 282.1 186.9 283.4ZM428.7 300.3L414.8 319.5L423.7 320C439.1 321 450.6 328.5 457.4 342.1C463.2 353.6 463.1 355.1 455 408C451.1 433.6 447.3 456.6 446.6 459.2L445.2 464H448.8C451.5 464 457.8 460.8 476.8 449.7C490.2 441.9 503.4 433.6 506.1 431.2C515.1 423.2 520.2 408.7 518.2 397C517.1 390.9 483.4 312 478.2 303.5C475 298.2 469.6 292.5 464.1 288.8C459.5 285.6 447.9 281 444.5 281.1C443.1 281.1 438.6 286.5 428.7 300.3Z" fill="url(#paint2_linear_210_2)"/>
<path d="M215.4 336.9C209.8 337.8 202.5 342.4 199.5 346.7C194.1 354.7 194.1 355.7 202.3 408.3C209 451.6 210 456.4 212.4 460L215 464H425L427.6 460C430 456.4 431 451.6 437.7 408.3C444.4 365.2 445 360 444 355.3C442.5 348.4 438.5 343.1 431.9 339.5L426.5 336.5L323 336.4C266.1 336.3 217.7 336.5 215.4 336.9ZM329.8 377.6C338.7 381.3 344 389.6 344 400C344 414.4 334.4 424 320 424C305.7 424 296.1 414.4 296 400.2C296 389.9 300.8 381.9 309.5 377.9C314.5 375.6 324.6 375.4 329.8 377.6Z" fill="url(#paint3_linear_210_2)"/>
<path d="M315 395C313.9 396.1 313 398.3 313 400C313 401.7 313.9 403.9 315 405C316.1 406.1 318.3 407 320 407C321.7 407 323.9 406.1 325 405C326.1 403.9 327 401.7 327 400C327 398.3 326.1 396.1 325 395C323.9 393.9 321.7 393 320 393C318.3 393 316.1 393.9 315 395ZM140.5 480.9C117.6 484.9 113.8 515.5 135 525.4L139.5 527.5H319.5C517.7 527.5 503.7 528 511.3 521.1C523.8 509.9 520.9 490.9 505.5 482.6L501.5 480.5L323 480.4C224.8 480.3 142.7 480.5 140.5 480.9ZM139.4 546.8C141.5 550.9 148.1 556.5 152.6 558.1C158.4 560.2 481.6 560.2 487.4 558.1C491.9 556.5 498.5 550.9 500.6 546.8L502.1 544H137.9L139.4 546.8Z" fill="url(#paint4_linear_210_2)"/>
<path d="M282.4 95.2L280.5 97.5L282.8 95.6C284.9 93.8 285.5 93 284.7 93C284.5 93 283.5 94 282.4 95.2ZM356.5 95C357.5 96.1 358.5 97 358.8 97C359.1 97 358.5 96.1 357.5 95C356.5 93.9 355.5 93 355.2 93C354.9 93 355.5 93.9 356.5 95ZM311.3 208.7C312.2 208.9 313.6 208.9 314.3 208.7C314.9 208.4 314.2 208.2 312.5 208.2C310.9 208.2 310.3 208.4 311.3 208.7ZM326.3 208.7C327.2 208.9 328.6 208.9 329.3 208.7C329.9 208.4 329.2 208.2 327.5 208.2C325.9 208.2 325.3 208.4 326.3 208.7ZM132.5 431C133.5 432.1 134.5 433 134.8 433C135.1 433 134.5 432.1 133.5 431C132.5 429.9 131.5 429 131.2 429C130.9 429 131.5 429.9 132.5 431ZM506.4 431.2L504.5 433.5L506.8 431.6C508 430.5 509 429.5 509 429.3C509 428.5 508.2 429.1 506.4 431.2Z" fill="black" fill-opacity="0.8"/>
<defs>
<linearGradient id="paint0_linear_210_2" x1="320" y1="80.0249" x2="361.128" y2="289.012" gradientUnits="userSpaceOnUse">
<stop stop-color="#EE1717"/>
<stop offset="1" stop-color="#C70038"/>
</linearGradient>
<linearGradient id="paint1_linear_210_2" x1="320.115" y1="208.741" x2="343.833" y2="333.469" gradientUnits="userSpaceOnUse">
<stop stop-color="#EE1717"/>
<stop offset="1" stop-color="#C70038"/>
</linearGradient>
<linearGradient id="paint2_linear_210_2" x1="320" y1="229" x2="387.179" y2="566.92" gradientUnits="userSpaceOnUse">
<stop stop-color="#EE1717"/>
<stop offset="1" stop-color="#C70038"/>
</linearGradient>
<linearGradient id="paint3_linear_210_2" x1="320.064" y1="336.375" x2="352.022" y2="521.635" gradientUnits="userSpaceOnUse">
<stop stop-color="#EE1717"/>
<stop offset="1" stop-color="#C70038"/>
</linearGradient>
<linearGradient id="paint4_linear_210_2" x1="320.072" y1="393" x2="354.449" y2="637.307" gradientUnits="userSpaceOnUse">
<stop stop-color="#EE1717"/>
<stop offset="1" stop-color="#C70038"/>
</linearGradient>
</defs>
</svg>
