<svg width="640" height="640" viewBox="0 0 640 640" fill="none" xmlns="http://www.w3.org/2000/svg">
<path d="M425 191.7L379.5 237.5L425.3 192C450.4 167 471 146.4 471 146.3C471 145.6 467.3 149.2 425 191.7ZM278.2 297C278.2 298.4 278.4 298.9 278.7 298.2C278.9 297.6 278.9 296.4 278.7 295.7C278.4 295.1 278.2 295.6 278.2 297ZM215.5 401.2L156.5 460.5L215.8 401.5C248.3 369.1 275 342.4 275 342.3C275 341.6 270.3 346.2 215.5 401.2ZM293.4 481.2L290.5 484.5L293.8 481.6C296.8 478.8 297.5 478 296.7 478C296.5 478 295.1 479.5 293.4 481.2ZM374 481.4C374 481.6 374.8 482.4 375.8 483.1C377.3 484.4 377.4 484.3 376.1 482.7C374.8 481.1 374 480.6 374 481.4ZM79.5001 541C80.5001 542.1 81.5001 543 81.8001 543C82.1001 543 81.5001 542.1 80.5001 541C79.5001 539.9 78.5001 539 78.2001 539C77.9001 539 78.5001 539.9 79.5001 541Z" fill="black" fill-opacity="0.1"/>
<path d="M408.1 292.6C408.1 293.7 408.4 294 408.7 293.2C409 292.5 408.9 291.6 408.6 291.3C408.3 290.9 408 291.5 408.1 292.6ZM389.2 296.5C389.2 298.1 389.4 298.7 389.7 297.7C389.9 296.8 389.9 295.4 389.7 294.7C389.4 294.1 389.2 294.8 389.2 296.5ZM343.5 418C343.5 444.1 343.6 454.8 343.7 441.8C343.9 428.7 343.9 407.3 343.7 394.3C343.6 381.2 343.5 391.9 343.5 418ZM445.1 445.6C445.1 446.7 445.4 447 445.7 446.2C446 445.5 445.9 444.6 445.6 444.3C445.3 443.9 445 444.5 445.1 445.6ZM118.8 445.7C119.4 445.9 120.6 445.9 121.3 445.7C121.9 445.4 121.4 445.2 120 445.2C118.6 445.2 118.1 445.4 118.8 445.7Z" fill="black" fill-opacity="0.2"/>
<path d="M239 215.5C258.5 235 274.7 251 275 251C275.3 251 259.5 235 240 215.5C220.5 196 204.3 180 204 180C203.7 180 219.5 196 239 215.5ZM259.2 296.5C259.2 298.1 259.4 298.7 259.7 297.7C259.9 296.8 259.9 295.4 259.7 294.7C259.4 294.1 259.2 294.8 259.2 296.5ZM332.8 352.7C333.4 352.9 334.6 352.9 335.3 352.7C335.9 352.4 335.4 352.2 334 352.2C332.6 352.2 332.1 352.4 332.8 352.7ZM415 391.5C434.5 411 450.7 427 451 427C451.3 427 435.5 411 416 391.5C396.5 372 380.3 356 380 356C379.7 356 395.5 372 415 391.5Z" fill="black" fill-opacity="0.4"/>
<path d="M515.8 175.7C516.5 176 517.4 175.9 517.7 175.6C518.1 175.3 517.5 175 516.4 175.1C515.3 175.1 515 175.4 515.8 175.7ZM328.8 222.7C329.5 223 330.4 222.9 330.7 222.6C331.1 222.3 330.5 222 329.4 222.1C328.3 222.1 328 222.4 328.8 222.7ZM337.8 222.7C338.5 223 339.4 222.9 339.7 222.6C340.1 222.3 339.5 222 338.4 222.1C337.3 222.1 337 222.4 337.8 222.7Z" fill="black" fill-opacity="0.5"/>
<path d="M389.1 520.6C389.1 521.7 389.4 522 389.7 521.2C390 520.5 389.9 519.6 389.6 519.3C389.3 518.9 389 519.5 389.1 520.6Z" fill="black" fill-opacity="0.7"/>
<path d="M425 192.7L379.5 238.5L425.3 193C450.4 168 471 147.4 471 147.3C471 146.6 467.3 150.2 425 192.7ZM252 202.5C271.5 222 287.7 238 288 238C288.3 238 272.5 222 253 202.5C233.5 183 217.3 167 217 167C216.7 167 232.5 183 252 202.5ZM216 401.7L157.5 460.5L216.3 402C248.6 369.8 275 343.4 275 343.3C275 342.6 270.4 347.1 216 401.7ZM428 378.5C447.5 398 463.7 414 464 414C464.3 414 448.5 398 429 378.5C409.5 359 393.3 343 393 343C392.7 343 408.5 359 428 378.5ZM80.4 462.2L78.5 464.5L80.8 462.6C82 461.5 83 460.5 83 460.3C83 459.5 82.2 460.1 80.4 462.2ZM294.5 481.2L290.5 485.5L294.8 481.5C298.7 477.9 299.5 477 298.7 477C298.5 477 296.6 478.9 294.5 481.2ZM373 481.5C374.9 483.4 376.6 485 376.9 485C377.2 485 375.9 483.4 374 481.5C372.1 479.6 370.4 478 370.1 478C369.8 478 371.1 479.6 373 481.5ZM278.1 520.6C278.1 521.7 278.4 522 278.7 521.2C279 520.5 278.9 519.6 278.6 519.3C278.3 518.9 278 519.5 278.1 520.6Z" fill="black" fill-opacity="0.8"/>
<path d="M518.8 64.7002C519.4 64.9002 520.6 64.9002 521.3 64.7002C521.9 64.4002 521.4 64.2002 520 64.2002C518.6 64.2002 518.1 64.4002 518.8 64.7002ZM482.9 78.7002C481.6 80.3002 481.7 80.4002 483.3 79.1002C484.2 78.4002 485 77.6002 485 77.4002C485 76.6002 484.2 77.1002 482.9 78.7002ZM478.4 83.2002L476.5 85.5002L478.8 83.6002C480.9 81.8002 481.5 81.0002 480.7 81.0002C480.5 81.0002 479.5 82.0002 478.4 83.2002ZM575.2 120C575.2 121.4 575.4 121.9 575.7 121.2C575.9 120.6 575.9 119.4 575.7 118.7C575.4 118.1 575.2 118.6 575.2 120ZM158.9 121.7C157.6 123.3 157.7 123.4 159.3 122.1C160.9 120.8 161.4 120 160.6 120C160.4 120 159.6 120.8 158.9 121.7ZM210.5 122C211.5 123.1 212.5 124 212.8 124C213.1 124 212.5 123.1 211.5 122C210.5 120.9 209.5 120 209.2 120C208.9 120 209.5 120.9 210.5 122ZM492 145.4C492 145.6 492.8 146.4 493.8 147.1C495.3 148.4 495.4 148.3 494.1 146.7C492.8 145.1 492 144.6 492 145.4ZM560.9 156.7C559.6 158.3 559.7 158.4 561.3 157.1C562.9 155.8 563.4 155 562.6 155C562.4 155 561.6 155.8 560.9 156.7ZM556.4 161.2L554.5 163.5L556.8 161.6C558 160.5 559 159.5 559 159.3C559 158.5 558.2 159.1 556.4 161.2ZM436.5 206C411.8 230.7 391.8 251.1 392 251.2C392.3 251.4 412.7 231.1 437.5 206.2C462.2 181.4 482.3 161 482 161C481.7 161 461.3 181.2 436.5 206ZM184.8 184.7C185.5 185 186.4 184.9 186.7 184.6C187.1 184.3 186.5 184 185.4 184.1C184.3 184.1 184 184.4 184.8 184.7ZM269 244.5C272.6 248.4 275.7 251.4 276 251.2C276.2 251.1 273.3 247.9 269.5 244.2L262.6 237.5L269 244.5ZM334.8 240.7C335.5 241 336.4 240.9 336.7 240.6C337.1 240.3 336.5 240 335.4 240.1C334.3 240.1 334 240.4 334.8 240.7ZM293.4 257.2L291.5 259.5L293.8 257.6C295 256.5 296 255.5 296 255.3C296 254.5 295.2 255.1 293.4 257.2ZM369.9 339.7C368.6 341.3 368.7 341.4 370.3 340.1C371.2 339.4 372 338.6 372 338.4C372 337.6 371.2 338.1 369.9 339.7ZM227.5 415.2L167.5 475.5L227.8 415.5C260.9 382.5 288 355.4 288 355.3C288 354.6 283.3 359.2 227.5 415.2ZM415 390.5C434.5 410 450.7 426 451 426C451.3 426 435.5 410 416 390.5C396.5 371 380.3 355 380 355C379.7 355 395.5 371 415 390.5ZM507 418.4C507 418.6 507.8 419.4 508.8 420.1C510.3 421.4 510.4 421.3 509.1 419.7C507.8 418.1 507 417.6 507 418.4ZM360.5 494C361.5 495.1 362.5 496 362.8 496C363.1 496 362.5 495.1 361.5 494C360.5 492.9 359.5 492 359.2 492C358.9 492 359.5 492.9 360.5 494ZM64.2 501.5C64.2 503.1 64.4 503.7 64.7 502.7C64.9 501.8 64.9 500.4 64.7 499.7C64.4 499.1 64.2 499.8 64.2 501.5ZM157.1 501.6C157.1 502.7 157.4 503 157.7 502.2C158 501.5 157.9 500.6 157.6 500.3C157.3 499.9 157 500.5 157.1 501.6ZM290 554.4C290 554.6 290.8 555.4 291.8 556.1C293.3 557.4 293.4 557.3 292.1 555.7C290.8 554.1 290 553.6 290 554.4ZM297 561.4C297 561.6 297.8 562.4 298.8 563.1C300.3 564.4 300.4 564.3 299.1 562.7C297.8 561.1 297 560.6 297 561.4ZM332.8 575.7C333.4 575.9 334.6 575.9 335.3 575.7C335.9 575.4 335.4 575.2 334 575.2C332.6 575.2 332.1 575.4 332.8 575.7Z" fill="black" fill-opacity="0.9"/>
<path d="M464.2 120C464.2 121.4 464.4 121.9 464.7 121.2C464.9 120.6 464.9 119.4 464.7 118.7C464.4 118.1 464.2 118.6 464.2 120ZM518.8 175.7C519.4 175.9 520.6 175.9 521.3 175.7C521.9 175.4 521.4 175.2 520 175.2C518.6 175.2 518.1 175.4 518.8 175.7ZM389.1 523.6C389.1 524.7 389.4 525 389.7 524.2C390 523.5 389.9 522.6 389.6 522.3C389.3 521.9 389 522.5 389.1 523.6Z" fill="black" fill-opacity="0.6"/>
<path d="M437 206.7L392.5 251.5L437.3 207C461.9 182.5 482 162.4 482 162.3C482 161.6 478.4 165.2 437 206.7ZM259.1 300.6C259.1 301.7 259.4 302 259.7 301.2C260 300.5 259.9 299.6 259.6 299.3C259.3 298.9 259 299.5 259.1 300.6ZM228 415.7L168.5 475.5L228.3 416C261.1 383.3 288 356.4 288 356.3C288 355.6 283.3 360.2 228 415.7ZM324 417.8L324.5 465.5L324.8 418.6C324.9 392.7 324.7 371.3 324.3 370.9C323.8 370.4 323.7 391.6 324 417.8ZM118.8 557.7C119.5 558 120.4 557.9 120.7 557.6C121.1 557.3 120.5 557 119.4 557.1C118.3 557.1 118 557.4 118.8 557.7Z" fill="black" fill-opacity="0.3"/>
<path d="M503.2 67.6C471.7 78.3 456.6 112.4 469.9 142.6L471.8 146.7L425.9 192.6L380 238.5L376.2 236.2C362.1 227.5 347.7 223 334.1 223C320 223 306.2 227.3 291.8 236.2L288 238.5L252.5 203C233 183.5 217 167 217 166.4C217 165.8 218 163.1 219.2 160.4C222.1 153.7 222.1 142.7 219 134.8C216.4 127.7 208.5 118.8 202.1 115.5C194.7 111.8 186.2 110.5 178.8 112C170.8 113.5 165.9 116.1 159.9 121.7C141.4 139 146.7 170 169.8 180.8C178.1 184.7 189.5 185.1 197.7 181.8L203.6 179.4L239.8 215.1L276 250.9L272 257.1C256.1 281.7 256.2 311.1 272.2 336.5L275.9 342.5L216.8 401.7C169.4 449.1 157.3 460.7 156.1 459.9C155.2 459.4 152.4 457.4 149.7 455.5C139.6 448.3 123.9 444.8 111.3 446.9C91.1 450.4 74 465.1 67.3 484.9C64.1 494.2 64.1 508.8 67.3 518.1C73.8 537.2 89.6 551.5 108.5 555.5C121.5 558.2 131.1 557 143.9 550.8C169.6 538.5 181.8 507.9 171.2 482L168.2 474.5L227.8 414.7C260.6 381.9 287.9 355 288.3 355C288.8 355 290.6 356.1 292.3 357.4C297.6 361.4 309.8 366.8 317.6 368.6L325 370.2V465.6L317.8 467.7C300 473 285.3 488.4 280.5 507C278.3 515.5 278.9 530 281.9 538.5C285.9 549.8 294.1 559.9 305 566.9C314.1 572.8 320.6 574.5 334 574.5C347.5 574.5 353.9 572.8 363.2 566.8C387.9 550.8 396.1 519.5 382.3 493.8C375.9 481.8 361.1 470.3 347.8 467L343 465.8V370.1L348.8 369C356.4 367.4 367.9 362.6 374 358.4C376.7 356.5 379.3 355 379.7 355C380.2 355 396.4 370.9 415.9 390.4L451.3 425.8L448.5 434.5C445.9 442.5 445.7 443.6 446.7 450C449.6 468.3 463.3 480.9 481.2 481.8C490.3 482.3 496.5 480.5 503.6 475.5C517.3 465.7 522.8 448.2 517 432.7C514 424.6 505.9 416.1 497.8 412.4C489.2 408.5 477.2 408.3 469.2 411.9L463.8 414.3L427.8 378.3L391.7 342.2L394.7 337.9C411.7 313.1 412.1 282.9 395.8 257.1L391.8 250.7L436.6 205.9C461.3 181.2 482 161 482.7 161C483.3 161 485.1 162 486.7 163.3C494.9 170.1 509 175 520 175C550.3 174.9 575 150.4 575 120.3C575 104.5 569.9 91.9 559 81C548 70.1 535.5 65 519.5 65C512.6 65 508.8 65.6 503.2 67.6ZM527.1 83C547.2 86.8 560.7 106.1 557.1 126.1C551.9 156 515 167.8 493.6 146.4C479 131.9 479.1 107.5 493.8 93.2C503.2 84 514.4 80.6 527.1 83ZM193.9 131C201 134.6 204.6 141.5 203.8 150.1C203.1 156.5 199.7 161.4 193.6 164.5C187.4 167.6 182.7 167.7 177 164.7C170.7 161.5 166.8 156.2 166.2 150C165.1 138 172.9 129.1 184.8 129C188.1 129 191.5 129.7 193.9 131ZM347.5 242.2C366.6 246.3 383.3 262.8 388.5 282.7C390.3 289.4 390.4 301.7 388.9 309.2C387 318.6 381.2 328.8 373.5 336.5C359.1 350.9 339.6 356.1 319.6 351C309.3 348.4 301.9 344.1 293.8 335.9C282.2 324.2 277.3 310.9 278.2 293.3C279.1 274.8 287.7 259.9 303.3 249.5C315.9 241.1 331.1 238.6 347.5 242.2ZM491.8 428.9C496.4 431.2 498.5 433.5 500.5 438.3C504.8 448.6 498.8 461 488.2 464C483.6 465.2 482.4 465.2 477.7 463.9C473 462.6 467.1 457.6 465.4 453.3C462.5 446.5 464.5 436.5 469.6 431.8C475.3 426.7 485 425.4 491.8 428.9ZM136.2 467.8C147.3 473.3 155 483.5 156.9 495.5C160.4 517.9 144.4 537.7 121.8 538.8C97.5 540 78.8 519.2 82.9 495.4C86.3 475.8 101.6 463.6 121.7 464.3C128.4 464.6 130.9 465.2 136.2 467.8ZM345 484.2C362.8 489.6 373.9 507.5 370.9 526.2C369.5 534.6 366.5 540.5 360.5 546.5C345.5 561.5 322.3 561.5 307.5 546.5C301.5 540.5 298.2 534.2 296.9 526C292.5 498.8 318.4 476.3 345 484.2Z" fill="url(#paint0_linear_210_16)"/>
<defs>
<linearGradient id="paint0_linear_210_16" x1="319.95" y1="65" x2="319.95" y2="574.5" gradientUnits="userSpaceOnUse">
<stop stop-color="#EE1717"/>
<stop offset="1" stop-color="#C70038"/>
</linearGradient>
</defs>
</svg>
