<svg width="26" height="26" viewBox="0 0 26 26" fill="none" xmlns="http://www.w3.org/2000/svg">
<path d="M10.5 3.34667C10.622 3.49494 10.6968 3.6764 10.7146 3.86759C10.7324 4.05879 10.6925 4.25094 10.6 4.41921C9.87732 5.74611 9.49992 7.23345 9.5025 8.74439C9.5025 13.7709 13.6 17.841 18.65 17.841C19.3088 17.841 19.95 17.7723 20.5663 17.641C20.7552 17.6001 20.9519 17.6158 21.132 17.686C21.3121 17.7563 21.4675 17.878 21.5788 18.036C21.6962 18.2003 21.7561 18.3989 21.7491 18.6008C21.7421 18.8026 21.6686 18.9966 21.54 19.1523C20.5596 20.3567 19.3228 21.327 17.9198 21.9927C16.5168 22.6583 14.9829 23.0025 13.43 23C7.6675 23 3 18.3573 3 12.6371C3 8.33188 5.6425 4.63922 9.405 3.07416C9.59242 2.99494 9.80049 2.97868 9.99794 3.02782C10.1954 3.07696 10.3716 3.18885 10.5 3.34667Z" fill="#353535"/>
<path d="M16.4925 6.93433C16.5104 6.8802 16.545 6.83309 16.5912 6.7997C16.6374 6.76631 16.693 6.74834 16.75 6.74834C16.807 6.74834 16.8626 6.76631 16.9088 6.7997C16.955 6.83309 16.9896 6.8802 17.0075 6.93433L17.4913 8.38689C17.7075 9.03442 18.215 9.54194 18.8625 9.7582L20.315 10.242C20.3691 10.2599 20.4162 10.2944 20.4496 10.3407C20.483 10.3869 20.501 10.4425 20.501 10.4995C20.501 10.5565 20.483 10.6121 20.4496 10.6583C20.4162 10.7045 20.3691 10.7391 20.315 10.757L18.8625 11.2408C18.5432 11.3472 18.253 11.5265 18.015 11.7645C17.777 12.0025 17.5976 12.2927 17.4913 12.6121L17.0075 14.0646C16.9896 14.1188 16.955 14.1659 16.9088 14.1993C16.8626 14.2326 16.807 14.2506 16.75 14.2506C16.693 14.2506 16.6374 14.2326 16.5912 14.1993C16.545 14.1659 16.5104 14.1188 16.4925 14.0646L16.0087 12.6121C15.9024 12.2927 15.723 12.0025 15.485 11.7645C15.247 11.5265 14.9568 11.3472 14.6375 11.2408L13.185 10.757C13.1309 10.7391 13.0838 10.7045 13.0504 10.6583C13.017 10.6121 12.999 10.5565 12.999 10.4995C12.999 10.4425 13.017 10.3869 13.0504 10.3407C13.0838 10.2944 13.1309 10.2599 13.185 10.242L14.6375 9.7582C14.9568 9.6518 15.247 9.47248 15.485 9.23446C15.723 8.99644 15.9024 8.70625 16.0087 8.38689L16.4925 6.93433ZM20.3287 3.12292C20.3411 3.08733 20.3642 3.05646 20.3949 3.03462C20.4256 3.01278 20.4623 3.00104 20.5 3.00104C20.5377 3.00104 20.5744 3.01278 20.6051 3.03462C20.6358 3.05646 20.6589 3.08733 20.6712 3.12292L20.9938 4.09046C21.1375 4.52298 21.4762 4.86174 21.9087 5.0055L22.8762 5.32801C22.9118 5.34035 22.9427 5.36348 22.9645 5.39417C22.9864 5.42486 22.9981 5.4616 22.9981 5.49927C22.9981 5.53694 22.9864 5.57368 22.9645 5.60437C22.9427 5.63506 22.9118 5.65819 22.8762 5.67053L21.9087 5.99304C21.6956 6.06395 21.5019 6.18357 21.3431 6.34241C21.1843 6.50125 21.0647 6.69493 20.9938 6.90808L20.6712 7.87562C20.6589 7.91121 20.6358 7.94208 20.6051 7.96392C20.5744 7.98577 20.5377 7.9975 20.5 7.9975C20.4623 7.9975 20.4256 7.98577 20.3949 7.96392C20.3642 7.94208 20.3411 7.91121 20.3287 7.87562L20.0062 6.90808C19.9353 6.69493 19.8157 6.50125 19.6569 6.34241C19.4981 6.18357 19.3044 6.06395 19.0913 5.99304L18.1237 5.67053C18.0882 5.65819 18.0573 5.63506 18.0355 5.60437C18.0136 5.57368 18.0019 5.53694 18.0019 5.49927C18.0019 5.4616 18.0136 5.42486 18.0355 5.39417C18.0573 5.36348 18.0882 5.34035 18.1237 5.32801L19.0913 5.0055C19.5238 4.86174 19.8625 4.52298 20.0062 4.09046L20.3287 3.12417V3.12292Z" fill="#353535"/>
</svg>
